<svg width="405" height="100" viewBox="0 0 405 100" fill="none" xmlns="http://www.w3.org/2000/svg">
<path d="M142.696 33.4C146.6 33.4 149.624 34.264 151.768 35.992C153.944 37.688 155.032 40.104 155.032 43.24C155.032 46.088 154.392 48.536 153.112 50.584C151.864 52.6 150.056 54.152 147.688 55.24C145.32 56.296 142.52 56.824 139.288 56.824H130.312L128.296 67H123.496L130.216 33.4H142.696ZM139.384 52.648C142.84 52.648 145.512 51.88 147.4 50.344C149.288 48.808 150.232 46.584 150.232 43.672C150.232 41.688 149.544 40.184 148.168 39.16C146.792 38.104 144.824 37.576 142.264 37.576H134.2L131.176 52.648H139.384ZM164.388 33.4H169.188L162.468 67H157.668L164.388 33.4ZM203.103 36.664L177.039 62.824H198.447L197.583 67H169.503L170.175 63.736L196.239 37.576H175.839L176.703 33.4H203.775L203.103 36.664ZM234.65 36.664L208.586 62.824H229.994L229.13 67H201.05L201.722 63.736L227.786 37.576H207.386L208.25 33.4H235.322L234.65 36.664ZM258.997 58.6H241.045L235.717 67H230.533L252.517 33.4H257.269L265.765 67H261.013L258.997 58.6ZM258.037 54.76L254.053 38.2L243.493 54.76H258.037Z" fill="#4F9844"/>
<path d="M275.769 33.4H285.273L280.089 59.464H296.121L294.585 67H269.049L275.769 33.4ZM322.913 60.472H308.609L304.721 67H294.689L316.241 33.4H325.601L333.713 67H324.257L322.913 60.472ZM321.473 53.464L319.217 42.568L312.785 53.464H321.473ZM365.832 49.672C367.272 50.312 368.376 51.208 369.144 52.36C369.944 53.48 370.344 54.808 370.344 56.344C370.344 59.832 368.92 62.488 366.072 64.312C363.224 66.104 359.512 67 354.936 67H336.456L343.176 33.4H360.168C363.944 33.4 366.824 34.088 368.808 35.464C370.824 36.808 371.832 38.744 371.832 41.272C371.832 43.224 371.304 44.92 370.248 46.36C369.192 47.768 367.72 48.872 365.832 49.672ZM351.192 40.264L349.896 46.744H356.712C358.408 46.744 359.688 46.424 360.552 45.784C361.448 45.112 361.896 44.152 361.896 42.904C361.896 41.144 360.568 40.264 357.912 40.264H351.192ZM355.464 60.136C357.16 60.136 358.488 59.8 359.448 59.128C360.408 58.456 360.888 57.464 360.888 56.152C360.888 55.192 360.536 54.488 359.832 54.04C359.128 53.56 358.168 53.32 356.952 53.32H348.552L347.208 60.136H355.464ZM385.874 67.672C383.09 67.672 380.45 67.336 377.954 66.664C375.458 65.992 373.426 65.128 371.858 64.072L375.602 56.968C377.298 58.056 379.106 58.888 381.026 59.464C382.946 60.008 384.866 60.28 386.786 60.28C388.61 60.28 390.018 60.024 391.01 59.512C392.034 58.968 392.546 58.232 392.546 57.304C392.546 56.504 392.082 55.88 391.154 55.432C390.258 54.984 388.85 54.504 386.93 53.992C384.754 53.416 382.946 52.84 381.506 52.264C380.066 51.656 378.818 50.744 377.762 49.528C376.738 48.312 376.226 46.712 376.226 44.728C376.226 42.328 376.882 40.232 378.194 38.44C379.506 36.616 381.378 35.208 383.81 34.216C386.242 33.224 389.09 32.728 392.354 32.728C394.754 32.728 396.994 32.984 399.074 33.496C401.154 33.976 402.946 34.68 404.45 35.608L400.994 42.664C399.682 41.832 398.226 41.208 396.626 40.792C395.058 40.344 393.442 40.12 391.778 40.12C389.89 40.12 388.402 40.424 387.314 41.032C386.258 41.64 385.73 42.424 385.73 43.384C385.73 44.216 386.194 44.856 387.122 45.304C388.05 45.752 389.49 46.232 391.442 46.744C393.618 47.288 395.41 47.848 396.818 48.424C398.258 49 399.49 49.88 400.514 51.064C401.538 52.248 402.05 53.8 402.05 55.72C402.05 58.088 401.378 60.184 400.034 62.008C398.722 63.8 396.834 65.192 394.37 66.184C391.938 67.176 389.106 67.672 385.874 67.672Z" fill="#E1301C"/>
<g clip-path="url(#clip0_3_331)">
<path fill-rule="evenodd" clip-rule="evenodd" d="M50.1158 49.832H3.49133C3.49133 49.8363 3.49133 49.8533 3.49133 49.8575C3.49133 65.9809 11.8411 80.9646 25.5406 89.4548L50.1116 49.832H50.1158Z" fill="#E2952D"/>
<path fill-rule="evenodd" clip-rule="evenodd" d="M50.1158 49.832H96.7382C96.7382 49.8278 96.7382 49.815 96.7382 49.8108C96.7382 33.6874 88.3905 18.7015 74.689 10.2093L50.1158 49.832Z" fill="#E2952D"/>
<path d="M100.232 49.832C100.232 51.7605 98.6667 53.3233 96.7382 53.3233C94.8097 53.3233 93.2469 51.7605 93.2469 49.832V49.8108C93.2469 42.3391 91.3205 35.1439 87.8122 28.8417C84.2953 22.5267 79.1966 17.0962 72.8625 13.169C71.2274 12.1612 70.7192 10.0179 71.7292 8.38283C72.7391 6.74774 74.8824 6.24169 76.5175 7.24953C83.885 11.8167 89.813 18.1275 93.8954 25.4588C97.9842 32.8029 100.232 41.1612 100.232 49.8108V49.832Z" fill="#EDAD4A"/>
<path fill-rule="evenodd" clip-rule="evenodd" d="M74.6868 10.5495C67.315 5.98442 58.7909 3.55624 50.1115 3.55624C41.1897 3.55624 32.436 6.1205 24.926 10.9365L50.1136 50.1743L74.6868 10.5495Z" fill="#E2952D"/>
<path d="M76.5154 7.58974C78.1505 8.59971 78.6565 10.743 77.6465 12.3781C76.6387 14.0132 74.4954 14.5192 72.8603 13.5092C69.4626 11.4021 65.782 9.78191 61.9314 8.68476C58.1105 7.59612 54.1302 7.03479 50.1073 7.03479C38.2003 7.03479 27.4202 11.8614 19.6168 19.6669C11.8113 27.4702 6.98474 38.2503 6.98474 50.1574V50.1744C6.98474 52.1029 5.41982 53.6657 3.49131 53.6657C1.5628 53.6657 0 52.1029 0 50.1744V50.1574C0 36.3218 5.60906 23.7961 14.6775 14.7276C23.746 5.6591 36.2718 0.0500412 50.1073 0.0500412C54.7659 0.0500412 59.3884 0.704928 63.8408 1.9743C68.2655 3.23517 72.535 5.11903 76.5154 7.58974Z" fill="#EDAD4A"/>
<path fill-rule="evenodd" clip-rule="evenodd" d="M25.5427 89.4548C32.9144 94.0198 41.4407 96.448 50.118 96.448C59.0418 96.448 67.7956 93.8837 75.3055 89.0678L50.118 49.8087L25.5427 89.4548Z" fill="#E2952D"/>
<path fill-rule="evenodd" clip-rule="evenodd" d="M50.1158 49.832L75.3034 89.0912C88.6563 80.5266 96.7382 65.7449 96.7382 49.8767C96.7382 49.8661 96.7382 49.8427 96.7382 49.8299L50.1158 49.832Z" fill="#E2952D"/>
<path fill-rule="evenodd" clip-rule="evenodd" d="M3.49561 49.832H50.1158L24.9282 10.5941L3.49561 49.832Z" fill="#E2952D"/>
<path fill-rule="evenodd" clip-rule="evenodd" d="M24.9282 10.5941C11.5775 19.1544 3.49133 33.9383 3.49133 49.8023C3.49133 49.8065 3.49133 49.8235 3.49133 49.8299L24.9282 10.5941Z" fill="#E2952D"/>
<path d="M23.5652 8.47001C24.7368 7.71732 26.2975 8.05752 27.0501 9.23121C27.8028 10.4028 27.4626 11.9634 26.2911 12.7161C19.9718 16.7688 14.9007 22.2864 11.4137 28.6652C7.92874 35.0397 6.01937 42.2881 6.01937 49.8023V49.8299C6.01937 51.2269 4.8882 52.358 3.49125 52.358C2.09643 52.358 0.963135 51.2269 0.963135 49.8299V49.8023C0.963135 41.4525 3.09789 33.377 6.99107 26.2561C10.8842 19.1332 16.5337 12.9798 23.5652 8.47001Z" fill="#E1301C"/>
<path d="M23.0465 7.6599C24.6645 6.62229 26.8206 7.09219 27.8603 8.71027C28.9 10.3305 28.4301 12.4865 26.8099 13.5262C20.6268 17.4917 15.6684 22.8881 12.2579 29.1244C8.85159 35.3565 6.98474 42.4475 6.98474 49.8022V49.8299C6.98474 51.7584 5.41982 53.3212 3.49131 53.3212C1.5628 53.3212 0 51.7584 0 49.8299V49.8022C0 41.293 2.17516 33.0601 6.147 25.7968C10.1188 18.5336 15.8767 12.2569 23.0465 7.6599Z" fill="#EDAD4A"/>
<path d="M23.7141 92.4145C22.0811 91.4045 21.5729 89.2613 22.5829 87.6262C23.5929 85.9911 25.7361 85.485 27.3712 86.4929C30.7669 88.5979 34.4495 90.2181 38.3044 91.3152C42.1232 92.4039 46.1014 92.9652 50.12 92.9652C62.027 92.9652 72.8093 88.1386 80.6147 80.3331C88.4181 72.5276 93.2468 61.7454 93.2468 49.8384V49.8341C93.2468 47.9035 94.8096 46.3407 96.7381 46.3407C98.6666 46.3407 100.232 47.9035 100.232 49.832V49.8384C100.232 63.6739 94.6204 76.2018 85.5519 85.2703C76.4834 94.3409 63.9555 99.95 50.12 99.95C45.4656 99.95 40.8453 99.2951 36.3929 98.0278C31.9661 96.7648 27.6944 94.881 23.7141 92.4145Z" fill="#EDAD4A"/>
<path d="M0.0127575 49.8575C0 47.9439 1.53516 46.3768 3.45091 46.3535C5.37092 46.3301 6.9486 47.8695 6.96986 49.7916V49.8575H6.98474C6.98474 57.3292 8.91113 64.5244 12.4194 70.8245C15.9341 77.1395 21.0329 82.5699 27.367 86.495C29.0021 87.505 29.5081 89.6482 28.5003 91.2833C27.4903 92.9163 25.3471 93.4244 23.712 92.4145C16.3445 87.8494 10.4186 81.5387 6.33624 74.2074C2.24532 66.8633 0 58.5071 0 49.8575H0.0127575Z" fill="#EDAD4A"/>
<path fill-rule="evenodd" clip-rule="evenodd" d="M78.5225 71.8132C77.4828 73.1209 73.2877 72.551 72.0609 73.6801C70.8361 74.8091 71.0105 79.0234 69.5965 79.9355C68.1826 80.8477 64.4234 78.9362 62.8797 79.6038C61.3339 80.2715 60.1751 84.4325 58.5166 84.7217C56.8603 85.0088 53.9494 82.1043 52.2739 82.2255C50.5985 82.3488 48.1618 85.7976 46.4863 85.6445C44.8108 85.4935 43.0184 81.6812 41.3918 81.2836C39.7631 80.8859 36.3398 83.3248 34.8046 82.6401C33.2695 81.9555 32.8272 77.7412 31.4111 76.8333C29.9929 75.9254 25.97 77.1267 24.7411 75.9828C23.51 74.841 24.4391 70.7225 23.4313 69.3872C22.4235 68.0519 18.1965 67.9009 17.3991 66.4168C16.5996 64.9348 18.8216 61.3436 18.2709 59.751C17.7223 58.1584 13.8036 56.636 13.5336 54.9797C13.2636 53.3212 16.5252 50.6421 16.5337 48.9645C16.5444 47.2848 13.3295 44.5547 13.6165 42.8919C13.9036 41.2292 17.852 39.76 18.4155 38.1716C18.9768 36.5833 16.7974 32.973 17.6032 31.4973C18.4112 30.0238 22.6297 29.9133 23.6716 28.5971C24.7134 27.2788 23.8289 23.1518 25.0728 22.0185C26.3145 20.8852 30.3416 22.1546 31.7513 21.2424C33.1589 20.3303 33.6692 16.1415 35.215 15.4739C36.7587 14.8084 40.1352 17.311 41.7787 16.9091C43.4245 16.5094 45.2679 12.7098 46.9222 12.5822C48.5743 12.4567 50.9961 15.9204 52.6716 16.0735C54.347 16.2245 57.2919 13.3413 58.944 13.6474C60.5982 13.9515 61.7103 18.1275 63.2539 18.8164C64.7976 19.5053 68.5674 17.6342 69.9729 18.5633C71.3762 19.4925 71.1359 23.6982 72.367 24.8443C73.5981 25.9925 77.7805 25.4566 78.8011 26.7856C79.8217 28.1166 78.2334 32.0204 79.0286 33.5088C79.8217 34.995 83.9487 35.8413 84.4846 37.4338C85.0225 39.0264 82.2477 42.203 82.5135 43.8594C82.7793 45.5179 86.4131 47.6675 86.4046 49.3472C86.3961 51.027 82.7368 53.1341 82.4519 54.7862C82.1691 56.4404 84.9034 59.6511 84.3506 61.2394C83.7957 62.8277 79.6516 63.6293 78.8457 65.1006C78.0378 66.5699 79.5814 70.4907 78.5225 71.8132Z" fill="#E1301C"/>
<path d="M80.4128 73.3165C79.2519 74.7794 77.3468 75.0111 75.4587 75.2387C74.5784 75.345 73.7066 75.4492 73.6981 75.4577C73.6832 75.4704 73.4983 76.3252 73.309 77.1884C72.905 79.0532 72.4925 80.9434 70.9021 81.9682C69.3244 82.9867 67.4512 82.5827 65.5929 82.1851C64.719 81.9959 63.8515 81.8088 63.8344 81.8173C63.8281 81.8194 63.4007 82.5572 62.9542 83.3099C61.9378 85.0237 60.9087 86.7587 58.9228 87.1032C57.2005 87.403 55.625 86.4738 54.0601 85.5489C53.2818 85.0896 52.5079 84.6324 52.4441 84.6367C52.4292 84.6388 51.7573 85.2002 51.0812 85.7679C49.6226 86.9862 48.1491 88.2194 46.2695 88.0472C44.4069 87.8771 43.1779 86.4164 41.9617 84.9705C41.3961 84.2986 40.8348 83.631 40.8241 83.6289C40.7901 83.6203 39.9651 83.935 39.1316 84.2518C37.3519 84.928 35.5489 85.6148 33.8202 84.8429C32.098 84.0754 31.4176 82.2893 30.7414 80.5181C30.4246 79.691 30.1121 78.8724 30.1057 78.8682L30.0993 78.8639C29.9717 78.8448 29.1382 78.8724 28.2962 78.9022C26.3932 78.966 24.4711 79.0298 23.0954 77.7519C21.7155 76.4698 21.6496 74.5327 21.5836 72.6191C21.5539 71.741 21.5241 70.8713 21.5028 70.8437C21.4901 70.8288 20.6566 70.5758 19.8167 70.3206C17.9967 69.7678 16.1574 69.2086 15.2708 67.5607C14.3735 65.8959 14.9285 64.0609 15.4792 62.243C15.7386 61.3882 15.9937 60.542 15.9916 60.5356C15.9831 60.5122 15.2665 59.9913 14.5436 59.4661C13.0063 58.3519 11.4542 57.225 11.1501 55.3667C10.8482 53.5126 11.973 51.954 13.0893 50.4083C13.6081 49.6896 14.1226 48.9752 14.1226 48.9539C14.1226 48.9199 13.6208 48.1991 13.1126 47.4698C12.0198 45.9048 10.9162 44.3229 11.233 42.4858C11.5562 40.6232 13.1297 39.5091 14.6903 38.4098C15.4111 37.8995 16.1256 37.3934 16.1362 37.3679C16.1468 37.336 15.9002 36.494 15.6535 35.6435C15.122 33.8235 14.5861 31.9864 15.4855 30.3428C16.3913 28.6864 18.2412 28.1485 20.0719 27.6148C20.9224 27.366 21.7665 27.1215 21.7793 27.1024C21.792 27.0875 21.8345 26.2072 21.8749 25.3184C21.9664 23.4176 22.0557 21.4976 23.4462 20.2303C24.8347 18.9652 26.7568 19.0545 28.6619 19.1438C29.5465 19.1863 30.4225 19.2267 30.4352 19.2182C30.465 19.1991 30.7882 18.3847 31.1156 17.564C31.8216 15.7907 32.536 13.9961 34.2582 13.252C34.3624 13.2094 34.4666 13.1712 34.5708 13.1435C36.1995 12.6013 37.8708 13.2647 39.5292 13.9238C40.3521 14.2492 41.1686 14.5745 41.2111 14.5639C41.2387 14.5575 41.8171 13.8835 42.3997 13.2052C43.6393 11.7614 44.8831 10.3135 46.7415 10.171C48.5913 10.0286 50.0499 11.2745 51.5 12.5099C52.1826 13.0904 52.8587 13.6687 52.8885 13.6708C52.9438 13.6751 53.7262 13.2243 54.5129 12.7714C56.0821 11.8656 57.6619 10.9556 59.3799 11.2724C61.3574 11.6381 62.3631 13.3774 63.3582 15.0997C63.7983 15.8587 64.2321 16.6114 64.2384 16.6136C64.2661 16.6263 65.1272 16.4498 65.9947 16.2734C67.8594 15.8949 69.739 15.5122 71.3061 16.5498C72.8731 17.5853 73.258 19.4691 73.6386 21.336C73.8151 22.1992 73.9916 23.0561 74.0128 23.0774C74.0383 23.1008 74.9058 23.2135 75.7819 23.3283C77.67 23.577 79.5751 23.8279 80.7212 25.3206C81.8566 26.7983 81.6099 28.6971 81.3675 30.5809C81.2548 31.4655 81.14 32.3457 81.157 32.3734C81.1677 32.3946 81.9544 32.7859 82.7496 33.1792C84.4527 34.0276 86.1729 34.8802 86.7746 36.6684C87.3742 38.4481 86.5216 40.1682 85.6796 41.8692C85.2841 42.6666 84.8929 43.4554 84.8971 43.4809C84.8992 43.5 85.5201 44.1294 86.1452 44.763C87.4784 46.1132 88.8264 47.4783 88.8158 49.3579C88.8073 51.2439 87.4444 52.5919 86.0942 53.9272C85.4648 54.5502 84.8397 55.1689 84.8354 55.1945C84.8291 55.2306 85.2076 56.0194 85.5903 56.8168C86.4153 58.5305 87.2466 60.2634 86.63 62.0325C86.007 63.8143 84.2763 64.6499 82.5604 65.4749C81.7651 65.8597 80.9763 66.2403 80.9635 66.2637C80.9529 66.2807 81.055 67.1461 81.1549 68.0221C81.376 69.9124 81.5972 71.8281 80.4128 73.3165ZM74.891 70.4333C75.7946 70.3249 76.5558 70.4035 76.6302 70.31L76.6409 70.2994C76.7174 70.2037 76.4559 69.4786 76.3517 68.5707C76.1603 66.9314 75.9732 65.309 76.7259 63.9355C77.4807 62.5619 78.9649 61.8475 80.4618 61.1246C81.2825 60.7312 82.0309 60.559 82.0713 60.4442C82.1075 60.3421 81.6354 59.7191 81.24 58.8963C80.5213 57.3994 79.8069 55.9131 80.0684 54.3801C80.3342 52.8343 81.5079 51.6734 82.6901 50.5039C83.3386 49.8618 83.9935 49.4621 83.9935 49.3387C83.9935 49.2218 83.3449 48.7987 82.7028 48.148C81.5376 46.968 80.381 45.7943 80.1301 44.2379C79.8813 42.6899 80.6106 41.2165 81.3463 39.7323C81.7524 38.9158 82.2329 38.3099 82.1968 38.1993C82.1564 38.0824 81.4207 37.9144 80.6106 37.5125C79.1222 36.7726 77.6445 36.0369 76.9003 34.6421C76.1603 33.2558 76.3708 31.6207 76.5835 29.9749C76.6983 29.0755 76.9471 28.3377 76.8811 28.2527C76.8067 28.1527 76.054 28.2314 75.1589 28.1145C73.5068 27.8976 71.8674 27.6807 70.7214 26.6133C69.5732 25.5438 69.2436 23.9279 68.9119 22.2992C68.7291 21.4125 68.7312 20.6386 68.6376 20.5769C68.542 20.5152 67.8446 20.8235 66.96 21.0022C65.3313 21.3338 63.7132 21.6634 62.2716 21.0192C60.83 20.377 60.0072 18.9546 59.1779 17.5215C58.7357 16.7539 58.7293 16.0607 58.5082 16.0203C58.4933 16.0182 57.7172 16.4881 56.9156 16.9516C55.4655 17.7873 54.0239 18.6186 52.4547 18.474C50.8856 18.3316 49.6268 17.2578 48.3617 16.1798C47.6728 15.593 47.2199 14.9849 47.1008 14.9934C46.9647 15.004 46.6522 15.6653 46.0696 16.3457C44.9809 17.6129 43.8944 18.878 42.3465 19.2565C40.8241 19.6265 39.2932 19.0184 37.7517 18.406C36.965 18.0934 36.3611 17.698 36.1974 17.6852L36.1698 17.698C36.0677 17.7405 35.9337 18.5017 35.5978 19.3437C34.9833 20.8873 34.3752 22.4182 33.0654 23.2666C31.7408 24.1235 30.095 24.0448 28.4344 23.9683C27.5287 23.9258 26.7823 23.7301 26.6994 23.8067C26.6122 23.8832 26.7419 24.6402 26.6994 25.546C26.6207 27.2066 26.5421 28.8523 25.564 30.0898C24.588 31.323 23.0082 31.7844 21.4135 32.2479C20.5439 32.5031 19.7806 32.5435 19.7232 32.6519C19.6679 32.7518 20.0336 33.4301 20.2866 34.3019C20.7544 35.9029 21.2201 37.4934 20.6949 38.9754C20.1697 40.4553 18.8259 41.4057 17.4693 42.3625C16.7294 42.8856 16.0192 43.1811 16.0001 43.2981C15.9831 43.3895 16.5423 43.9614 17.0654 44.7078C18.0137 46.0686 18.9535 47.4145 18.9471 48.973C18.9386 50.5486 17.9754 51.8817 17.0037 53.2277C16.4721 53.9634 15.898 54.4758 15.9172 54.5906C15.9363 54.7075 16.6422 55.0158 17.38 55.5517C18.7132 56.5191 20.0379 57.4802 20.5503 58.9664C21.0712 60.4761 20.5949 62.0537 20.1144 63.6421C19.8507 64.5096 19.4659 65.1602 19.5254 65.2729C19.5786 65.3686 20.3504 65.443 21.2158 65.7045C22.8211 66.1914 24.4137 66.6741 25.3599 67.9307C26.2933 69.1661 26.3507 70.8075 26.406 72.4681C26.4379 73.3739 26.3018 74.1373 26.3869 74.2138C26.4655 74.2882 27.231 74.1096 28.1453 74.0777C29.6932 74.0267 31.2305 73.9735 32.4935 74.6752C32.5679 74.7113 32.6423 74.7539 32.7146 74.8006C34.0648 75.6639 34.6601 77.2246 35.2618 78.798C35.5829 79.64 35.668 80.3842 35.787 80.4373C35.8955 80.4841 36.5503 80.0567 37.4115 79.7293C38.9424 79.1488 40.4563 78.5705 41.9595 78.9383C43.5011 79.3147 44.5706 80.5862 45.6486 81.8683C46.2291 82.5572 46.5926 83.2334 46.7032 83.244C46.8287 83.2546 47.2816 82.6423 47.979 82.0597C49.2568 80.9902 50.5262 79.9292 52.1039 79.8144C53.6603 79.7017 55.0849 80.5415 56.5201 81.3878C57.3175 81.8598 58.0978 82.3403 58.1106 82.3382C58.3317 82.2999 58.3445 81.6089 58.7931 80.8498C59.6372 79.4274 60.4728 78.0177 61.9229 77.3904C63.3752 76.7632 64.9784 77.1076 66.5964 77.4563C67.4873 77.6477 68.1975 77.9624 68.2911 77.9028C68.3931 77.8369 68.3867 77.063 68.5824 76.1678C68.9332 74.554 69.2798 72.9593 70.4258 71.9026C71.5846 70.8331 73.2304 70.6353 74.891 70.4333Z" fill="#E1301C"/>
<path fill-rule="evenodd" clip-rule="evenodd" d="M31.7109 51.0971C31.7109 54.1675 29.2211 56.6573 26.1487 56.6573C23.0783 56.6573 20.5885 54.1675 20.5885 51.0971C20.5885 48.0247 23.0783 45.5349 26.1487 45.5349C29.2211 45.5349 31.7109 48.0247 31.7109 51.0971Z" fill="#333333"/>
<path fill-rule="evenodd" clip-rule="evenodd" d="M80.5978 51.0971C80.5978 54.1675 78.1079 56.6573 75.0376 56.6573C71.9652 56.6573 69.4753 54.1675 69.4753 51.0971C69.4753 48.0268 71.9631 45.537 75.0334 45.5349C75.0334 45.5349 75.0355 45.5349 75.0376 45.5349C78.1079 45.5349 80.5978 48.0247 80.5978 51.0971Z" fill="#333333"/>
<path d="M54.2152 65.3218C54.2152 64.2502 55.0848 63.3805 56.1565 63.3805C57.2281 63.3805 58.0977 64.2502 58.0977 65.3218C58.0977 67.3928 57.2579 69.2702 55.9013 70.6268C54.5469 71.9791 52.6715 72.8169 50.5963 72.8169V72.8254C48.5232 72.8254 46.6479 71.9855 45.2892 70.6268C43.9326 69.2702 43.0928 67.3928 43.0928 65.3218C43.0928 64.2502 43.9624 63.3805 45.034 63.3805C46.1057 63.3805 46.9753 64.2502 46.9753 65.3218C46.9753 66.3211 47.3793 67.2269 48.0363 67.8818C48.6912 68.5367 49.5949 68.9428 50.5963 68.9428V68.9492C51.5893 68.9492 52.4951 68.5409 53.1542 67.8818C53.8112 67.2269 54.2152 66.3211 54.2152 65.3218Z" fill="#333333"/>
<path fill-rule="evenodd" clip-rule="evenodd" d="M92.4601 18.7377H6.34897L0.229614 37.9016H99.683L92.4601 18.7377Z" fill="#4F9844"/>
<path fill-rule="evenodd" clip-rule="evenodd" d="M116.395 25.748C116.451 26.1966 116.481 26.6516 116.481 27.1045C116.481 32.5243 112.449 37.1 107.072 37.7847C101.18 38.5352 95.0372 28.4653 95.0372 28.4653L116.395 25.748Z" fill="#4F9844"/>
<path fill-rule="evenodd" clip-rule="evenodd" d="M95.5836 29.6347C95.5836 29.6347 92.2114 18.3316 96.7169 14.4533C98.6688 12.7735 101.161 11.8465 103.738 11.8465C106.87 11.8465 109.851 13.2158 111.892 15.5887L95.5836 29.6347Z" fill="#4F9844"/>
<path fill-rule="evenodd" clip-rule="evenodd" d="M0.225429 37.9016C0.225429 37.9016 -0.106267 31.795 6.33203 18.7377L14.5011 22.5075L0.225429 37.9016Z" fill="#4F9844"/>
<path fill-rule="evenodd" clip-rule="evenodd" d="M99.2471 37.9016C99.2471 37.9016 99.683 28.3037 93.1405 18.7377L84.9651 22.5075L99.2471 37.9016Z" fill="#4F9844"/>
</g>
<defs>
<clipPath id="clip0_3_331">
<rect width="116.48" height="100" fill="white"/>
</clipPath>
</defs>
</svg>
