<svg width="101" height="100" viewBox="0 0 101 100" fill="none" xmlns="http://www.w3.org/2000/svg">
<path fill-rule="evenodd" clip-rule="evenodd" d="M43.2318 49.9438H3.01172C3.01172 49.9475 3.01172 49.9622 3.01172 49.9658C3.01172 63.8745 10.2146 76.8 22.0322 84.1239L43.2281 49.9438H43.2318V49.9438Z" fill="#E2952D"/>
<path fill-rule="evenodd" clip-rule="evenodd" d="M43.2317 49.9438H83.4499C83.4499 49.9402 83.4499 49.9292 83.4499 49.9255C83.4499 36.0168 76.2489 23.0895 64.4294 15.7637L43.2317 49.9438V49.9438Z" fill="#E2952D"/>
<path d="M86.4637 49.9438C86.4637 51.6074 85.1138 52.9556 83.4502 52.9556C81.7866 52.9556 80.4384 51.6074 80.4384 49.9438V49.9255C80.4384 43.4802 78.7767 37.2733 75.7503 31.8367C72.7165 26.3892 68.3181 21.7047 62.8541 18.3169C61.4436 17.4475 61.0052 15.5987 61.8765 14.1882C62.7477 12.7777 64.5966 12.3411 66.0071 13.2106C72.3625 17.1504 77.4762 22.5943 80.9979 28.9185C84.525 35.2538 86.4637 42.464 86.4637 49.9255V49.9438Z" fill="#EDAD4A"/>
<path fill-rule="evenodd" clip-rule="evenodd" d="M64.4277 16.0572C58.0686 12.1192 50.7153 10.0246 43.2282 10.0246C35.5319 10.0246 27.9806 12.2366 21.5022 16.391L43.23 50.2391L64.4277 16.0572V16.0572Z" fill="#E2952D"/>
<path d="M66.0051 13.504C67.4155 14.3753 67.8521 16.2241 66.9808 17.6346C66.1114 19.0451 64.2626 19.4816 62.8521 18.6104C59.9211 16.7927 56.7461 15.3951 53.4244 14.4486C50.1283 13.5095 46.6947 13.0253 43.2245 13.0253C32.953 13.0253 23.6537 17.1889 16.9222 23.9222C10.1889 30.6537 6.0253 39.953 6.0253 50.2245V50.2391C6.0253 51.9027 4.67534 53.2509 3.01174 53.2509C1.34813 53.2509 0 51.9027 0 50.2391V50.2245C0 38.2894 4.83858 27.4842 12.6614 19.6614C20.4842 11.8386 31.2894 7 43.2245 7C47.2432 7 51.2307 7.56493 55.0715 8.65994C58.8884 9.74761 62.5715 11.3727 66.0051 13.504Z" fill="#EDAD4A"/>
<path fill-rule="evenodd" clip-rule="evenodd" d="M22.0342 84.1239C28.3933 88.0619 35.7484 90.1565 43.2337 90.1565C50.9318 90.1565 58.4831 87.9445 64.9615 83.7901L43.2337 49.9237L22.0342 84.1239V84.1239Z" fill="#E2952D"/>
<path fill-rule="evenodd" clip-rule="evenodd" d="M43.2317 49.9438L64.9595 83.8103C76.4782 76.4222 83.4499 63.6709 83.4499 49.9823C83.4499 49.9732 83.4499 49.953 83.4499 49.942L43.2317 49.9438V49.9438Z" fill="#E2952D"/>
<path fill-rule="evenodd" clip-rule="evenodd" d="M3.01538 49.9438H43.2318L21.504 16.0957L3.01538 49.9438Z" fill="#E2952D"/>
<path fill-rule="evenodd" clip-rule="evenodd" d="M21.504 16.0957C9.98713 23.4802 3.01172 36.2333 3.01172 49.9182C3.01172 49.9218 3.01172 49.9365 3.01172 49.942L21.504 16.0957Z" fill="#E2952D"/>
<path d="M20.3282 14.2634C21.3389 13.6141 22.6852 13.9075 23.3345 14.92C23.9838 15.9307 23.6903 17.277 22.6797 17.9263C17.2284 21.4222 12.8539 26.1819 9.84584 31.6845C6.83961 37.1834 5.19251 43.4361 5.19251 49.9182V49.942C5.19251 51.1471 4.21672 52.1228 3.01166 52.1228C1.80843 52.1228 0.830811 51.1471 0.830811 49.942V49.9182C0.830811 42.7153 2.67234 35.7491 6.03073 29.6064C9.38913 23.4618 14.2626 18.1537 20.3282 14.2634V14.2634Z" fill="#E1301C"/>
<path d="M19.8808 13.5646C21.2766 12.6695 23.1364 13.0748 24.0334 14.4706C24.9303 15.8683 24.5249 17.7282 23.1273 18.6251C17.7934 22.0458 13.5161 26.701 10.5741 32.0807C7.63572 37.4567 6.0253 43.5737 6.0253 49.9181V49.942C6.0253 51.6056 4.67534 52.9537 3.01174 52.9537C1.34813 52.9537 0 51.6056 0 49.942V49.9181C0 42.5777 1.87637 35.4758 5.30263 29.2102C8.7289 22.9446 13.6959 17.5301 19.8808 13.5646V13.5646Z" fill="#EDAD4A"/>
<path d="M20.4566 86.6771C19.0479 85.8058 18.6096 83.957 19.4808 82.5465C20.352 81.136 22.2009 80.6995 23.6114 81.5689C26.5406 83.3847 29.7174 84.7824 33.0428 85.7288C36.337 86.6679 39.7687 87.1521 43.2353 87.1521C53.5068 87.1521 62.808 82.9885 69.5413 76.2552C76.2727 69.5219 80.4382 60.2208 80.4382 49.9493V49.9457C80.4382 48.2802 81.7863 46.9321 83.4499 46.9321C85.1135 46.9321 86.4635 48.2802 86.4635 49.9438V49.9493C86.4635 61.8844 81.623 72.6914 73.8002 80.5142C65.9774 88.3389 55.1704 93.1774 43.2353 93.1774C39.2203 93.1774 35.2346 92.6125 31.3938 91.5193C27.5751 90.4298 23.8902 88.8047 20.4566 86.6771V86.6771Z" fill="#EDAD4A"/>
<path d="M0.0110051 49.9658C0 48.3151 1.32428 46.9633 2.97689 46.9431C4.63316 46.9229 5.99412 48.2509 6.01246 49.909V49.9658H6.0253C6.0253 56.4112 7.68708 62.618 10.7135 68.0527C13.7454 73.5003 18.1438 78.1848 23.6078 81.5707C25.0183 82.4419 25.4548 84.2908 24.5854 85.7013C23.7142 87.1099 21.8653 87.5483 20.4549 86.6771C14.0994 82.7391 8.98752 77.2952 5.46588 70.9709C1.9369 64.6356 0 57.4273 0 49.9658H0.0110051V49.9658Z" fill="#EDAD4A"/>
<path fill-rule="evenodd" clip-rule="evenodd" d="M67.7365 68.9056C66.8396 70.0337 63.2208 69.5421 62.1624 70.5161C61.1059 71.49 61.2564 75.1254 60.0366 75.9122C58.8169 76.6991 55.574 75.0502 54.2424 75.6261C52.909 76.202 51.9093 79.7915 50.4787 80.041C49.0498 80.2886 46.5388 77.7831 45.0935 77.8877C43.6482 77.994 41.5462 80.9691 40.1008 80.837C38.6555 80.7068 37.1093 77.4181 35.7061 77.0751C34.3011 76.7321 31.3481 78.8359 30.0238 78.2453C28.6995 77.6547 28.318 74.0194 27.0964 73.2362C25.873 72.453 22.4028 73.4893 21.3426 72.5025C20.2806 71.5175 21.0821 67.9647 20.2127 66.8128C19.3433 65.661 15.697 65.5307 15.0091 64.2505C14.3195 62.972 16.2362 59.8741 15.7612 58.5003C15.2879 57.1265 11.9075 55.8132 11.6746 54.3844C11.4417 52.9537 14.2553 50.6426 14.2626 49.1955C14.2718 47.7465 11.4985 45.3914 11.7461 43.957C11.9937 42.5227 15.3998 41.2553 15.8859 39.8851C16.3701 38.515 14.4901 35.4006 15.1852 34.1276C15.8822 32.8565 19.5212 32.7612 20.42 31.6258C21.3188 30.4886 20.5557 26.9284 21.6287 25.9508C22.6999 24.9732 26.1738 26.0682 27.3899 25.2813C28.6041 24.4945 29.0443 20.8811 30.3778 20.3052C31.7094 19.7311 34.6221 21.8899 36.0399 21.5433C37.4596 21.1984 39.0498 17.9208 40.4768 17.8107C41.902 17.7025 43.9911 20.6904 45.4365 20.8224C46.8818 20.9527 49.4222 18.4655 50.8473 18.7296C52.2743 18.9919 53.2336 22.5943 54.5652 23.1885C55.8969 23.7828 59.1489 22.1687 60.3613 22.9703C61.5718 23.7718 61.3646 27.3998 62.4266 28.3885C63.4886 29.3789 67.0964 28.9167 67.9768 30.0631C68.8572 31.2113 67.4871 34.5788 68.1731 35.8628C68.8572 37.1449 72.4174 37.8749 72.8796 39.2487C73.3436 40.6225 70.95 43.3628 71.1793 44.7916C71.4086 46.2223 74.5432 48.0766 74.5359 49.5256C74.5285 50.9746 71.3719 52.7923 71.1261 54.2175C70.8822 55.6445 73.2409 58.4141 72.764 59.7842C72.2853 61.1544 68.7105 61.8459 68.0153 63.1151C67.3183 64.3825 68.65 67.7648 67.7365 68.9056V68.9056Z" fill="#E1301C"/>
<path d="M69.3673 70.2024C68.3658 71.4644 66.7224 71.6643 65.0936 71.8605C64.3343 71.9523 63.5822 72.0421 63.5749 72.0495C63.5621 72.0605 63.4025 72.7978 63.2393 73.5425C62.8908 75.1511 62.5349 76.7817 61.163 77.6657C59.802 78.5443 58.1861 78.1958 56.583 77.8528C55.8291 77.6896 55.0808 77.5282 55.0661 77.5355C55.0606 77.5374 54.6919 78.1738 54.3068 78.8231C53.43 80.3015 52.5423 81.7982 50.8291 82.0953C49.3435 82.3539 47.9843 81.5524 46.6344 80.7545C45.963 80.3583 45.2954 79.964 45.2404 79.9677C45.2275 79.9695 44.6479 80.4537 44.0647 80.9434C42.8064 81.9944 41.5353 83.0583 39.9139 82.9097C38.3071 82.763 37.247 81.5029 36.1978 80.2556C35.7099 79.676 35.2257 79.1001 35.2165 79.0982C35.1872 79.0909 34.4755 79.3624 33.7565 79.6357C32.2213 80.2189 30.6659 80.8114 29.1747 80.1456C27.689 79.4834 27.1021 77.9427 26.5188 76.4148C26.2455 75.7013 25.9759 74.9952 25.9704 74.9915L25.9649 74.9878C25.8548 74.9713 25.1358 74.9952 24.4095 75.0209C22.7679 75.0759 21.1098 75.1309 19.9231 74.0286C18.7327 72.9225 18.6758 71.2516 18.619 69.6008C18.5933 68.8433 18.5676 68.0931 18.5493 68.0693C18.5383 68.0564 17.8193 67.8382 17.0948 67.6181C15.5247 67.1412 13.9381 66.6588 13.1733 65.2373C12.3992 63.8011 12.878 62.2182 13.353 60.65C13.5768 59.9126 13.7969 59.1826 13.7951 59.1771C13.7877 59.157 13.1696 58.7076 12.546 58.2545C11.2199 57.2934 9.88091 56.3213 9.61862 54.7182C9.35817 53.1188 10.3285 51.7744 11.2914 50.4409C11.7389 49.8209 12.1828 49.2047 12.1828 49.1863C12.1828 49.157 11.7499 48.5352 11.3116 47.9061C10.3688 46.5561 9.41686 45.1915 9.69015 43.6067C9.96895 42 11.3262 41.0389 12.6725 40.0906C13.2943 39.6504 13.9106 39.2138 13.9198 39.1918C13.929 39.1643 13.7162 38.438 13.5034 37.7043C13.0449 36.1342 12.5827 34.5495 13.3585 33.1317C14.1399 31.7028 15.7356 31.2388 17.3149 30.7784C18.0485 30.5638 18.7767 30.3529 18.7877 30.3364C18.7987 30.3235 18.8354 29.5642 18.8703 28.7975C18.9491 27.1577 19.0262 25.5015 20.2257 24.4083C21.4235 23.3169 23.0816 23.394 24.725 23.471C25.488 23.5077 26.2437 23.5425 26.2547 23.5352C26.2804 23.5187 26.5592 22.8162 26.8416 22.1082C27.4506 20.5785 28.0669 19.0304 29.5526 18.3885C29.6424 18.3518 29.7323 18.3188 29.8222 18.2949C31.2272 17.8272 32.6689 18.3995 34.0995 18.9681C34.8094 19.2487 35.5137 19.5293 35.5504 19.5202C35.5742 19.5147 36.0731 18.9332 36.5757 18.3481C37.645 17.1027 38.718 15.8536 40.3211 15.7307C41.9168 15.6078 43.1751 16.6827 44.426 17.7483C45.0148 18.2491 45.598 18.748 45.6237 18.7498C45.6714 18.7535 46.3464 18.3646 47.025 17.9739C48.3787 17.1926 49.7415 16.4075 51.2235 16.6808C52.9293 16.9963 53.7969 18.4967 54.6553 19.9824C55.0349 20.6372 55.4091 21.2865 55.4146 21.2883C55.4385 21.2993 56.1813 21.1471 56.9297 20.9949C58.5382 20.6684 60.1597 20.3382 61.5114 21.2333C62.8632 22.1265 63.1952 23.7516 63.5236 25.3621C63.6758 26.1067 63.828 26.8459 63.8464 26.8643C63.8684 26.8844 64.6167 26.9816 65.3724 27.0807C67.0012 27.2953 68.6446 27.5117 69.6332 28.7993C70.6127 30.0741 70.3999 31.712 70.1908 33.3371C70.0936 34.1001 69.9946 34.8595 70.0092 34.8833C70.0184 34.9017 70.6971 35.2392 71.383 35.5785C72.8522 36.3103 74.3361 37.0458 74.8552 38.5884C75.3724 40.1236 74.6369 41.6075 73.9106 43.0748C73.5694 43.7626 73.2319 44.4431 73.2356 44.4651C73.2374 44.4816 73.773 45.0245 74.3122 45.5711C75.4623 46.7358 76.6252 47.9134 76.616 49.5348C76.6086 51.1617 75.4329 52.3246 74.2682 53.4765C73.7253 54.0139 73.1861 54.5476 73.1824 54.5697C73.1769 54.6008 73.5034 55.2813 73.8335 55.9691C74.5452 57.4475 75.2624 58.9424 74.7304 60.4684C74.193 62.0055 72.7 62.7263 71.2198 63.438C70.5338 63.7699 69.8533 64.0983 69.8423 64.1184C69.8332 64.1331 69.9212 64.8796 70.0074 65.6353C70.1982 67.2659 70.3889 68.9185 69.3673 70.2024V70.2024ZM64.6039 67.7153C65.3834 67.6217 66.0401 67.6896 66.1043 67.6089L66.1134 67.5997C66.1795 67.5172 65.9539 66.8917 65.864 66.1085C65.6989 64.6944 65.5375 63.2949 66.1868 62.11C66.8379 60.9251 68.1182 60.3088 69.4095 59.6852C70.1175 59.3459 70.7631 59.1973 70.7979 59.0983C70.8291 59.0102 70.4219 58.4728 70.0808 57.763C69.4608 56.4717 68.8445 55.1896 69.0701 53.8672C69.2994 52.5337 70.3119 51.5322 71.3317 50.5234C71.8911 49.9695 72.456 49.6247 72.456 49.5183C72.456 49.4174 71.8966 49.0524 71.3427 48.4912C70.3376 47.4732 69.3398 46.4607 69.1233 45.1181C68.9087 43.7828 69.5379 42.5117 70.1725 41.2314C70.5228 40.5271 70.9373 40.0044 70.9062 39.909C70.8713 39.8081 70.2367 39.6632 69.5379 39.3166C68.2539 38.6783 66.9792 38.0436 66.3372 36.8404C65.6989 35.6445 65.8805 34.234 66.0639 32.8144C66.1629 32.0385 66.3775 31.402 66.3207 31.3287C66.2565 31.2425 65.6072 31.3103 64.835 31.2094C63.4098 31.0224 61.9957 30.8353 61.007 29.9145C60.0166 28.9919 59.7323 27.5979 59.4462 26.1929C59.2884 25.4281 59.2902 24.7604 59.2095 24.7072C59.127 24.6541 58.5254 24.92 57.7624 25.0741C56.3574 25.3602 54.9616 25.6445 53.718 25.0888C52.4744 24.5348 51.7646 23.3078 51.0492 22.0715C50.6677 21.4094 50.6622 20.8114 50.4715 20.7766C50.4586 20.7748 49.7892 21.1801 49.0977 21.58C47.8468 22.3008 46.6032 23.018 45.2495 22.8932C43.8959 22.7703 42.8101 21.8441 41.7187 20.9141C41.1245 20.4079 40.7338 19.8833 40.6311 19.8907C40.5137 19.8998 40.244 20.4703 39.7415 21.0572C38.8024 22.1504 37.8651 23.2417 36.5298 23.5682C35.2165 23.8874 33.8959 23.3628 32.5661 22.8345C31.8875 22.5649 31.3666 22.2238 31.2253 22.2128L31.2015 22.2238C31.1135 22.2604 30.9979 22.9171 30.7081 23.6434C30.178 24.975 29.6534 26.2957 28.5236 27.0275C27.3809 27.7667 25.9612 27.6988 24.5287 27.6328C23.7474 27.5961 23.1036 27.4273 23.032 27.4934C22.9568 27.5594 23.0687 28.2124 23.032 28.9937C22.9642 30.4262 22.8963 31.8459 22.0526 32.9134C21.2107 33.9772 19.8479 34.3753 18.4722 34.7751C17.7221 34.9952 17.0636 35.0301 17.0141 35.1236C16.9664 35.2098 17.2819 35.7949 17.5001 36.5469C17.9036 37.9281 18.3053 39.3 17.8523 40.5785C17.3992 41.8551 16.24 42.675 15.0698 43.5003C14.4315 43.9515 13.8189 44.2065 13.8024 44.3074C13.7877 44.3862 14.2701 44.8796 14.7213 45.5234C15.5394 46.6973 16.3501 47.8584 16.3446 49.2028C16.3372 50.562 15.5064 51.712 14.6681 52.873C14.2096 53.5077 13.7144 53.9497 13.7309 54.0488C13.7474 54.1496 14.3563 54.4156 14.9928 54.8778C16.1428 55.7124 17.2855 56.5414 17.7276 57.8235C18.1769 59.1258 17.7661 60.4867 17.3516 61.8569C17.1241 62.6052 16.7921 63.1665 16.8435 63.2637C16.8893 63.3462 17.5551 63.4104 18.3017 63.636C19.6865 64.0561 21.0603 64.4724 21.8765 65.5564C22.6817 66.6221 22.7312 68.0381 22.7789 69.4706C22.8064 70.252 22.689 70.9104 22.7624 70.9765C22.8303 71.0407 23.4906 70.8866 24.2793 70.8591C25.6146 70.8151 26.9407 70.7692 28.0302 71.3745C28.0944 71.4057 28.1586 71.4423 28.2209 71.4827C29.3857 72.2274 29.8992 73.5737 30.4183 74.931C30.6953 75.6573 30.7686 76.2993 30.8714 76.3451C30.9649 76.3855 31.5298 76.0168 32.2727 75.7343C33.5933 75.2336 34.8992 74.7347 36.196 75.052C37.5258 75.3767 38.4484 76.4735 39.3783 77.5795C39.879 78.1738 40.1927 78.7571 40.2881 78.7663C40.3963 78.7754 40.787 78.2472 41.3886 77.7446C42.4909 76.822 43.5859 75.9068 44.9469 75.8077C46.2895 75.7105 47.5184 76.435 48.7565 77.165C49.4443 77.5722 50.1175 77.9867 50.1285 77.9849C50.3192 77.9519 50.3302 77.3558 50.7173 76.701C51.4454 75.4739 52.1663 74.2578 53.4172 73.7167C54.6699 73.1757 56.0529 73.4728 57.4487 73.7736C58.2172 73.9387 58.8299 74.2101 58.9106 74.1588C58.9986 74.1019 58.9931 73.4343 59.1619 72.6621C59.4645 71.2699 59.7635 69.8943 60.7521 68.9827C61.7517 68.0601 63.1714 67.8895 64.6039 67.7153V67.7153Z" fill="#E1301C"/>
<path fill-rule="evenodd" clip-rule="evenodd" d="M79.7598 23.1207H5.47703L0.198242 39.6522H85.9905L79.7598 23.1207Z" fill="#4F9844"/>
<path fill-rule="evenodd" clip-rule="evenodd" d="M100.407 29.168C100.455 29.555 100.48 29.9475 100.48 30.3382C100.48 35.0135 97.0028 38.9607 92.3642 39.5513C87.2816 40.1988 81.9827 31.5121 81.9827 31.5121L100.407 29.168V29.168Z" fill="#4F9844"/>
<path fill-rule="evenodd" clip-rule="evenodd" d="M82.454 32.5209C82.454 32.5209 79.545 22.7703 83.4316 19.4248C85.1154 17.9758 87.2651 17.1761 89.4881 17.1761C92.1899 17.1761 94.7614 18.3573 96.5222 20.4042L82.454 32.5209Z" fill="#4F9844"/>
<path fill-rule="evenodd" clip-rule="evenodd" d="M0.194391 39.6522C0.194391 39.6522 -0.0917417 34.3844 5.46218 23.1207L12.5091 26.3727L0.194391 39.6522V39.6522Z" fill="#4F9844"/>
<path fill-rule="evenodd" clip-rule="evenodd" d="M85.6144 39.6522C85.6144 39.6522 85.9904 31.3727 80.3466 23.1207L73.2942 26.3727L85.6144 39.6522V39.6522Z" fill="#4F9844"/>
</svg>
